#!OML:ASF I:\Actors\actors\Patient Classification 2\Patient 1\Session 1\actor1.ASF
:FULLY-SPECIFIED
:DEGREES
773
root -0.663889 18.7632 5.84618 3.67139 -1.51586 -4.96759
lowerback 8.40834 0.785387 0.938172
upperback 1.55559 1.17765 1.49477
thorax -3.11501 0.580878 0.888812
lowerneck -13.072 -2.51907 -0.841826
upperneck 31.4619 -4.09635 1.96428
head 12.6773 -1.66186 0.303289
rclavicle -6.80837e-015 -2.06736e-014
rhumerus -22.2092 40.6989 -71.7202
rradius 113.29
rwrist 9.20463
rhand -14.1249 -25.17
rfingers 7.12502
rthumb 12.0086 -414.806
lclavicle -6.80837e-015 -2.06736e-014
lhumerus -15.0172 -43.726 70.0637
lradius 104.294
lwrist -1.49599
lhand -13.0124 -39.1673
lfingers 7.12502
lthumb 13.0812 -9.59758
rfemur 0 0 0
rtibia 0
rfoot 0 0
rtoes 0
lfemur -7.94424 -3.90221 -8.66596
ltibia 23.8499
lfoot -22.0936 12.0879
ltoes -56.0892
774
root -0.663514 18.7631 5.85006 3.70732 -1.49737 -4.98677
lowerback 8.37657 0.782942 0.978678
upperback 1.49628 1.17812 1.4813
thorax -3.15764 0.580584 0.852085
lowerneck -13.0536 -2.53677 -0.79533
upperneck 31.6083 -4.12372 1.91363
head 12.7322 -1.67346 0.271806
rclavicle 1.95803e-014 -1.37161e-014
rhumerus -23.059 40.7499 -72.6182
rradius 113.072
rwrist 10.1424
rhand -14.62 -25.1136
rfingers 7.12502
rthumb 11.5313 -414.776
lclavicle 1.95803e-014 -1.37161e-014
lhumerus -15.9647 -43.4186 71.4875
lradius 103.868
lwrist -1.56785
lhand -12.9276 -38.996
lfingers 7.12502
lthumb 13.163 -9.43154
rfemur 0 0 0
rtibia 0
rfoot 0 0
rtoes 0
lfemur -7.97767 -3.96542 -8.64712
ltibia 23.86
lfoot -22.0913 12.0952
ltoes -56.0547
775
root -0.663953 18.7627 5.85438 3.71508 -1.49181 -4.99133
lowerback 8.29517 0.79647 0.96752
upperback 1.47836 1.19416 1.48764
thorax -3.13139 0.5888 0.864131
lowerneck -13.0797 -2.562 -0.808647
upperneck 31.7864 -4.14519 1.85893
head 12.8112 -1.68904 0.249194
rclavicle 2.98177e-015 -1.33186e-014
rhumerus -23.8042 40.9277 -73.4556
rradius 112.514
rwrist 10.6913
rhand -15.1053 -24.7992
rfingers 7.12502
rthumb 11.0632 -414.488
lclavicle 2.98177e-015 -1.33186e-014
lhumerus -16.6384 -43.2812 72.7122
lradius 103.242
lwrist -1.57206
lhand -12.6855 -38.498
lfingers 7.12502
lthumb 13.3963 -8.94869
rfemur 0 0 0
rtibia 0
rfoot 0 0
rtoes 0
lfemur -7.96659 -4.00497 -8.6444
ltibia 23.8583
lfoot -22.1093 12.1125
ltoes -56.0535
776
root -0.665956 18.7615 5.8565 3.65556 -1.53641 -4.97042
lowerback 8.25113 0.82645 0.892882
upperback 1.50917 1.22648 1.50025
thorax -3.07714 0.605775 0.916432
lowerneck -13.1544 -2.59955 -0.934299
upperneck 31.9526 -4.18654 1.90461
head 12.9021 -1.71338 0.28099
rclavicle -3.52843e-015 -2.18663e-015
rhumerus -24.4592 41.2413 -74.2328
rradius 111.76
rwrist 10.8064
rhand -15.3003 -24.7497
rfingers 7.12502
rthumb 10.8752 -414.448
lclavicle -3.52843e-015 -2.18663e-015
lhumerus -17.157 -43.2976 73.7214
lradius 102.619
lwrist -1.50131
lhand -12.3346 -37.7732
lfingers 7.12502
lthumb 13.7345 -8.2465
rfemur 0 0 0
rtibia 0
rfoot 0 0
rtoes 0
lfemur -7.87129 -3.97858 -8.67192
ltibia 23.8455
lfoot -22.129 12.126
ltoes -56.0531
777
root -0.667371 18.7602 5.85532 3.58352 -1.55501 -4.95624
lowerback 8.2572 0.835112 0.844049
upperback 1.54356 1.23339 1.50613
thorax -3.04616 0.609732 0.949375
lowerneck -13.2509 -2.62951 -1.0409
upperneck 32.0808 -4.22763 1.9706
head 12.9822 -1.73306 0.317148
rclavicle 6.26172e-015 -1.27222e-014
rhumerus -24.9768 41.6387 -74.851
rradius 110.972
rwrist 10.7975
rhand -15.1629 -24.8821
rfingers 7.12502
rthumb 11.0076 -414.574
lclavicle 6.26172e-015 -1.27222e-014
lhumerus -17.6688 -43.3883 74.5613
lradius 102.167
lwrist -1.50056
lhand -12.0983 -37.4974
lfingers 7.12502
lthumb 13.9623 -7.98627
rfemur 0 0 0
rtibia 0
rfoot 0 0
rtoes 0
lfemur -7.778 -3.99216 -8.69164
ltibia 23.8214
lfoot -22.1311 12.149
ltoes -56.0529
778
root -0.667688 18.7593 5.85272 3.50932 -1.53942 -4.94271
lowerback 8.29633 0.817117 0.81943
upperback 1.5871 1.20683 1.496
thorax -3.02286 0.596728 0.955377
lowerneck -13.3752 -2.63793 -1.04824
upperneck 32.1648 -4.24209 1.97292
head 13.0451 -1.73776 0.315077
rclavicle -8.24956e-015 8.74653e-015
rhumerus -25.3581 42.022 -75.2982
rradius 110.383
rwrist 10.8342
rhand -14.9297 -25.0269
rfingers 7.12502
rthumb 11.2326 -414.706
lclavicle -8.24956e-015 8.74653e-015
lhumerus -18.1288 -43.4697 75.2044
lradius 101.996
lwrist -1.66328
lhand -12.0756 -37.841
lfingers 7.12502
lthumb 13.9841 -8.33133
rfemur 0 0 0
rtibia 0
rfoot 0 0
rtoes 0
lfemur -7.69473 -4.09716 -8.71478
ltibia 23.7953
lfoot -22.1562 12.2087
ltoes -56.0263
779
root -0.668868 18.7585 5.8501 3.43079 -1.54258 -4.90334
lowerback 8.3658 0.810628 0.765304
upperback 1.64549 1.19226 1.45825
thorax -3.00119 0.589803 0.947808
lowerneck -13.4595 -2.65252 -1.02625
upperneck 32.1512 -4.27977 2.00403
head 13.0587 -1.74695 0.31634
rclavicle 1.07344e-014 3.57812e-015
rhumerus -25.7796 42.2536 -75.7405
rradius 110.173
rwrist 11.0137
rhand -15.026 -25.2767
rfingers 7.12502
rthumb 11.1397 -414.961
lclavicle 1.07344e-014 3.57812e-015
lhumerus -18.4945 -43.5608 75.6375
lradius 102.116
lwrist -1.88716
lhand -12.1712 -38.4404
lfingers 7.12502
lthumb 13.8921 -8.92436
rfemur 0 0 0
rtibia 0
rfoot 0 0
rtoes 0
lfemur -7.60872 -4.16216 -8.7635
ltibia 23.7777
lfoot -22.1866 12.2701
ltoes -55.9652
780
root -0.6701 18.7579 5.84744 3.40156 -1.56762 -4.87835
lowerback 8.41543 0.839 0.726594
upperback 1.69142 1.22502 1.41496
thorax -2.98148 0.606244 0.92091
lowerneck -13.4114 -2.69417 -1.08753
upperneck 32.0013 -4.38058 2.19268
head 12.9946 -1.77621 0.385834
rclavicle 1.82882e-014 -7.15625e-015
rhumerus -26.3149 42.2393 -76.211
rradius 110.332
rwrist 11.3786
rhand -15.2671 -25.2369
rfingers 7.12502
rthumb 10.9071 -414.934
lclavicle 1.82882e-014 -7.15625e-015
lhumerus -18.7865 -43.5933 75.9828
lradius 102.423
lwrist -2.13016
lhand -12.3809 -39.1007
lfingers 7.12502
lthumb 13.6899 -9.57093
rfemur 0 0 0
rtibia 0
rfoot 0 0
rtoes 0
lfemur -7.57622 -4.14093 -8.78904
ltibia 23.7676
lfoot -22.19 12.2598
ltoes -55.913
781
root -0.670966 18.7585 5.84469 3.41225 -1.60592 -4.89283
lowerback 8.42927 0.890495 0.687366
upperback 1.72262 1.28956 1.41317
thorax -2.95846 0.638625 0.934146
lowerneck -13.2856 -2.73319 -1.14958
upperneck 31.8091 -4.4703 2.36796
head 12.8958 -1.80388 0.452974
rclavicle 5.86415e-015 -2.22639e-014
rhumerus -26.8421 42.0148 -76.589
rradius 110.708
rwrist 11.7196
rhand -15.4967 -24.8916
rfingers 7.12502
rthumb 10.6857 -414.6
lclavicle 5.86415e-015 -2.22639e-014
lhumerus -18.9933 -43.4747 76.3016
lradius 102.685
lwrist -2.33799
lhand -12.632 -39.6468
lfingers 7.12502
lthumb 13.4479 -10.1009
rfemur 0 0 0
rtibia 0
rfoot 0 0
rtoes 0
lfemur -7.58437 -4.09805 -8.77018
ltibia 23.7622
lfoot -22.183 12.239
ltoes -55.949
